<svg width="24" height="24" viewBox="0 0 24 24" fill="none" xmlns="http://www.w3.org/2000/svg">
<mask id="mask0_4470_2822" style="mask-type:alpha" maskUnits="userSpaceOnUse" x="0" y="0" width="24" height="24">
<rect width="24" height="24" fill="#D9D9D9"/>
</mask>
<g mask="url(#mask0_4470_2822)">
<path d="M17.987 19.8147L14.0799 15.9073C13.5799 16.3202 13.0049 16.6433 12.3549 16.8766C11.7049 17.1099 11.0324 17.2266 10.3376 17.2266C8.62843 17.2266 7.18193 16.6348 5.9981 15.4513C4.81427 14.2678 4.22235 12.8217 4.22235 11.1128C4.22235 9.40418 4.8141 7.95751 5.9976 6.77284C7.1811 5.58834 8.62727 4.99609 10.3361 4.99609C12.0448 4.99609 13.4914 5.58801 14.6761 6.77184C15.8606 7.95568 16.4529 9.40218 16.4529 11.1113C16.4529 11.8255 16.333 12.5076 16.0934 13.1576C15.8535 13.8076 15.5336 14.3729 15.1336 14.8536L19.0407 18.7607L17.987 19.8147ZM10.3376 15.7268C11.6261 15.7268 12.7174 15.2797 13.6116 14.3853C14.5059 13.4912 14.9531 12.3998 14.9531 11.1113C14.9531 9.82284 14.5059 8.73151 13.6116 7.83734C12.7174 6.94301 11.6261 6.49584 10.3376 6.49584C9.0491 6.49584 7.95777 6.94301 7.0636 7.83734C6.16927 8.73151 5.7221 9.82284 5.7221 11.1113C5.7221 12.3998 6.16927 13.4912 7.0636 14.3853C7.95777 15.2797 9.0491 15.7268 10.3376 15.7268Z" fill="#111111"/>
</g>
</svg>
